<?xml version="1.0" standalone="no"?>
<!DOCTYPE svg PUBLIC "-//W3C//DTD SVG 20010904//EN"
 "http://www.w3.org/TR/2001/REC-SVG-20010904/DTD/svg10.dtd">
<svg version="1.0" xmlns="http://www.w3.org/2000/svg"
 width="500.000000pt" height="500.000000pt" viewBox="0 0 500.000000 500.000000"
 preserveAspectRatio="xMidYMid meet">
<metadata>
Created by potrace 1.11, written by Peter Selinger 2001-2013
</metadata>
<g transform="translate(0.000000,500.000000) scale(0.100000,-0.100000)"
fill="#000000" stroke="none">
<path d="M658 4980 c-315 -66 -573 -327 -639 -644 -18 -87 -19 -165 -19 -1836
0 -1671 1 -1749 19 -1836 68 -330 330 -585 666 -649 66 -13 324 -15 1818 -15
1671 0 1746 1 1834 19 319 66 578 325 644 645 18 87 19 165 19 1836 0 1671 -1
1749 -19 1836 -66 320 -325 579 -644 645 -88 18 -161 19 -1842 18 -1656 0
-1755 -1 -1837 -19z m1706 -593 c132 -47 214 -111 280 -221 90 -150 86 -395
-9 -546 -31 -49 -106 -116 -160 -142 -52 -25 -55 -33 -18 -42 43 -11 110 -63
143 -111 60 -87 78 -169 100 -460 9 -124 30 -225 52 -252 8 -10 76 -13 279
-13 345 0 447 -13 568 -74 71 -36 127 -96 163 -172 25 -53 31 -81 35 -162 7
-129 -7 -196 -60 -275 -30 -43 -62 -75 -109 -106 l-66 -45 53 -21 c160 -66
257 -206 272 -396 17 -218 -83 -402 -268 -493 -158 -77 -244 -86 -806 -86
l-453 0 0 919 c0 561 -4 930 -10 945 -10 26 -21 112 -41 306 -15 154 -40 230
-91 286 -62 68 -96 74 -385 74 l-243 0 0 -355 0 -355 -200 0 -200 0 0 908 c0
500 3 912 7 916 4 4 251 6 548 4 l540 -3 79 -28z"/>
<path d="M1590 3845 l0 -256 278 3 c265 3 279 4 319 25 85 46 123 118 123 232
0 111 -37 183 -113 224 -40 21 -54 22 -324 25 l-283 3 0 -256z"/>
<path d="M2760 2074 l0 -215 248 3 c281 3 313 11 368 84 27 35 29 43 29 129 0
84 -2 94 -27 127 -55 73 -127 88 -409 88 l-209 0 0 -216z"/>
<path d="M2760 1339 l0 -250 283 3 c268 3 284 4 323 25 48 26 101 82 111 121
16 55 8 175 -14 217 -60 114 -133 135 -475 135 l-228 0 0 -251z"/>
</g>
</svg>
